<svg id="Layer_1" data-name="Layer 1" xmlns="http://www.w3.org/2000/svg" viewBox="0 0 103 55"><defs><style>.cls-1{fill:#0b1a28;}</style></defs><title>space-logo-footer</title><polygon class="cls-1" points="4.63 16.16 0 16.16 0 0 15.87 0 15.87 4.72 4.63 4.72 4.63 16.16"/><polygon class="cls-1" points="103 16.16 98.37 16.16 98.37 4.72 87.14 4.72 87.14 0 103 0 103 16.16"/><polygon class="cls-1" points="15.87 55 0 55 0 38.84 4.63 38.84 4.63 50.28 15.87 50.28 15.87 55"/><polygon class="cls-1" points="103 55 87.13 55 87.13 50.28 98.37 50.28 98.37 38.84 103 38.84 103 55"/><path class="cls-1" d="M27.4,22.43A7.76,7.76,0,0,0,25,22a2.82,2.82,0,0,0-1.5.35,1.15,1.15,0,0,0-.55,1,1.42,1.42,0,0,0,.8,1.32,11.71,11.71,0,0,0,2.45,1,20.58,20.58,0,0,1,2.73,1,4.85,4.85,0,0,1,1.84,1.48,4.15,4.15,0,0,1,.76,2.61,4.49,4.49,0,0,1-.82,2.71,5.1,5.1,0,0,1-2.25,1.73,8.52,8.52,0,0,1-3.25.59A10.93,10.93,0,0,1,21.37,35a10.55,10.55,0,0,1-3.28-1.92l1.46-3a9.65,9.65,0,0,0,2.81,1.8,7.38,7.38,0,0,0,2.91.69A3.16,3.16,0,0,0,27,32.14a1.5,1.5,0,0,0,.21-2.26,3.19,3.19,0,0,0-1.09-.67,17.64,17.64,0,0,0-1.81-.59,20.74,20.74,0,0,1-2.71-.94,4.78,4.78,0,0,1-1.81-1.43,4.06,4.06,0,0,1-.76-2.56,4.37,4.37,0,0,1,.79-2.6A5,5,0,0,1,22,19.38a8.26,8.26,0,0,1,3.27-.6,11.42,11.42,0,0,1,6.14,1.81L30,23.66A12.69,12.69,0,0,0,27.4,22.43Z"/><path class="cls-1" d="M44.33,23.58a5.37,5.37,0,0,1,2.05,2.29,7.7,7.7,0,0,1,.73,3.41,7.37,7.37,0,0,1-.72,3.34,5.38,5.38,0,0,1-2,2.25,5.71,5.71,0,0,1-3,.8,5,5,0,0,1-2.29-.51,4.69,4.69,0,0,1-1.7-1.47v6.39H33.8V22.89h3.55v1.85A4.41,4.41,0,0,1,39,23.28a4.9,4.9,0,0,1,2.25-.51A5.78,5.78,0,0,1,44.33,23.58Zm-1.67,8.1a4.13,4.13,0,0,0,0-5,3,3,0,0,0-4.44,0,3.61,3.61,0,0,0-.87,2.5,3.66,3.66,0,0,0,.87,2.54,3,3,0,0,0,4.44,0Z"/><path class="cls-1" d="M56.41,35.52V34a4,4,0,0,1-1.61,1.23,5.81,5.81,0,0,1-2.29.42A4.38,4.38,0,0,1,49.4,34.6a3.75,3.75,0,0,1-1.15-2.86A3.38,3.38,0,0,1,49.48,29a5.47,5.47,0,0,1,3.5-1h3.41V27.7a1.93,1.93,0,0,0-.66-1.56,2.91,2.91,0,0,0-1.92-.55,7.58,7.58,0,0,0-3.69,1.1L49,24.2a14.33,14.33,0,0,1,2.77-1.1,10.5,10.5,0,0,1,2.83-.35A5.71,5.71,0,0,1,58.48,24a4.24,4.24,0,0,1,1.39,3.33l0,8.24Zm-1-3a2.12,2.12,0,0,0,1-1.37V30.08H53.6a2.77,2.77,0,0,0-1.54.34,1.22,1.22,0,0,0-.49,1.09,1.43,1.43,0,0,0,.52,1.16,2.13,2.13,0,0,0,1.42.44A3.37,3.37,0,0,0,55.42,32.57Z"/><path class="cls-1" d="M68.34,25.85a2.79,2.79,0,0,0-2.18.93,3.45,3.45,0,0,0-.85,2.45,3.66,3.66,0,0,0,.83,2.48,2.73,2.73,0,0,0,2.13.95,3.18,3.18,0,0,0,2.88-1.48l2.44,1.69a5.3,5.3,0,0,1-2.2,2.07,7.21,7.21,0,0,1-3.31.73,6.72,6.72,0,0,1-3.3-.8,5.68,5.68,0,0,1-2.22-2.26,6.9,6.9,0,0,1-.8-3.36,7,7,0,0,1,.8-3.39,5.59,5.59,0,0,1,2.24-2.28,6.68,6.68,0,0,1,3.33-.81,7,7,0,0,1,3.16.69,5.67,5.67,0,0,1,2.21,2l-2.4,1.77A3.33,3.33,0,0,0,68.34,25.85Z"/><path class="cls-1" d="M85.25,24.53a7.21,7.21,0,0,1,1.55,4.91c0,.38,0,.67,0,.87h-8.9A3.31,3.31,0,0,0,79,32.18a3.26,3.26,0,0,0,2,.67,4.43,4.43,0,0,0,1.69-.34,4.55,4.55,0,0,0,1.45-1l1.87,1.92a6.26,6.26,0,0,1-2.3,1.66,7.66,7.66,0,0,1-3,.58,7.05,7.05,0,0,1-3.42-.8,5.59,5.59,0,0,1-2.26-2.26,7.48,7.48,0,0,1,0-6.75,5.7,5.7,0,0,1,2.26-2.28,6.72,6.72,0,0,1,3.32-.81A5.78,5.78,0,0,1,85.25,24.53Zm-1.79,3.64a2.83,2.83,0,0,0-.79-2,2.62,2.62,0,0,0-2-.76,2.66,2.66,0,0,0-1.92.74,3.48,3.48,0,0,0-1,2Z"/></svg>